# xmcd CD database file
#
# Track frame offsets:
#	150
#	12920
#	27645
#	43217
#	60385
#	74492
#	88962
#	103360
#	121072
#	133215
#	153502
#	166622
#
# Disc length: 2446 seconds
#
# Revision: 2
# Processed by: cddbd v1.5.2PL0 Copyright (c) Steve Scherf et al.
# Submitted via: CDex 1.51
#
DISCID=a8098c0c
DTITLE=Cole Swindell - Cole Swindell
DYEAR=2014
DGENRE=Country
TTITLE0=Hey Y'All
TTITLE1=Chillin' It
TTITLE2=Swayin'
TTITLE3=Hope You Get Lonely Tonight
TTITLE4=Let Me See Ya Girl
TTITLE5=Ain't Worth The Whiskey
TTITLE6=Brought To You By Beer
TTITLE7=I Just Want You
TTITLE8=Get Up
TTITLE9=Dozen Roses and A Six-Pack
TTITLE10=Down Home Boys
TTITLE11=The Back Roads and The Back Row
EXTD=YEAR: 2014
EXTT0=
EXTT1=
EXTT2=
EXTT3=
EXTT4=
EXTT5=
EXTT6=
EXTT7=
EXTT8=
EXTT9=
EXTT10=
EXTT11=
PLAYORDER=
